<?xml version="1.0" encoding="utf-8"?>
<!-- Generator: Adobe Illustrator 19.1.0, SVG Export Plug-In . SVG Version: 6.00 Build 0)  -->
<svg version="1.1" id="Layer_1" xmlns="http://www.w3.org/2000/svg" xmlns:xlink="http://www.w3.org/1999/xlink" x="0px" y="0px"
	 viewBox="502 182.9 1600 477" style="enable-background:new 502 182.9 1600 477;" xml:space="preserve">
<style type="text/css">
	.st0{fill:#FFFFFF;}
</style>
<g id="layer1">
	<path class="st0" d="M797,438.9c-14.6-10.1-40.5-27.5-48.4-32.5c-1.7-1.1-7.8-5.1-13.6-9c-5.7-3.8-11.8-7.9-13.4-9
		c-1.7-1.1-7.6-5-13.1-8.7s-11.1-7.5-12.5-8.5c-1.4-0.9-7-4.6-12.5-8.2c-5.5-3.5-10.9-7.3-12-8.2c-1.1-1-3.1-2.4-4.5-3.1
		s-7.9-4.9-14.4-9.3c-6.6-4.4-13.3-8.9-15-10c-1.7-1.1-7.8-5.1-13.5-9c-5.7-3.8-12-8-14-9.2s-4.1-2.6-4.8-3.2
		c-0.6-0.6-5.1-3.6-10-6.7c-4.8-3.1-9-6-9.3-6.5c-0.3-0.4-2.4-1.8-4.6-3.1c-2.3-1.2-8.7-5.4-14.4-9.3c-5.7-3.8-11.9-7.9-13.9-9.1
		c-6.7-3.8-5.5-4.7,9.6-7.3c15.4-2.6,48.5-8.6,84.8-15.5c13.2-2.5,24.9-4.6,26-4.6s13.7-2.2,28-5c14.3-2.7,37.3-7,51-9.5
		c13.8-2.5,35.8-6.6,49-9c13.2-2.5,25.8-4.7,28-5.1c2.2-0.3,14.6-2.5,27.5-4.9s34.8-6.4,48.5-8.9c56.9-10.4,81.2-14.9,103.5-19.1
		c21.7-4.2,31-5.4,31-3.9c0,0.3-8.4,9.8-18.6,21.2c-10.2,11.4-20.7,23.1-23.2,26c-2.6,2.9-6.5,7.2-8.7,9.6c-2.2,2.4-6,6.7-8.5,9.5
		c-2.5,2.9-5.4,6.2-6.5,7.4c-1.1,1.2-7.8,8.7-14.9,16.7c-7.1,8-15.6,17.6-19,21.3c-3.4,3.8-7.3,8.3-8.9,10
		c-6.7,7.8-11.5,13.1-15.2,17.2c-2.2,2.4-6.2,6.9-9,10.1c-2.7,3.2-6.9,7.8-9.1,10.3c-11.7,13-24.6,27.5-30.4,34.1
		c-10,11.4-13.1,14.9-17.7,19.5c-2.4,2.3-4.3,4.6-4.3,5.1s-1.8,2.7-4,4.9c-2.2,2.2-10.8,11.7-19.2,21c-8.3,9.4-15.7,17.1-16.2,17.2
		C806,444.7,801.7,442.1,797,438.9z"/>
</g>
<g id="layer2">
	<path class="st0" d="M2006.9,655.7c7.9-17.9,16-35.3,25.5-54.8c2.5-5.2,4.9-11,5.2-12.8c0.7-3.6,0-5.2-19.2-43.5
		c-5.2-10.3-9.4-19.3-9.5-20c0-0.6-2.6-5.7-5.7-11.1c-4.2-7.4-6.8-10.7-10.1-13.1c-7.5-5.2-7-5.5,10.6-5.5h15.8l3.7,7.3
		c2,3.9,5.2,10.6,7.1,14.7c18,39.2,19.8,43,20.7,43c0.3,0,1.7-2.4,3-5.2c1.2-2.9,4-8.9,6.1-13.3c2.1-4.4,4.7-10.5,5.9-13.5
		s2.8-6.5,3.6-7.7c0.8-1.2,2.3-4.6,3.5-7.5c1.1-2.9,3.5-8.1,5.2-11.5l3.1-6.3h10.3h10.3v2.5c0,1.4-2,6.5-4.5,11.4s-4.5,9.3-4.5,9.7
		c0,0.4-2.2,5.3-4.8,10.8c-2.7,5.6-7,14.8-9.7,20.6c-2.6,5.8-6.7,14.6-9.1,19.6c-2.4,5-4.4,9.4-4.4,9.9c0,0.4-2.3,5.5-5.1,11.4
		c-11.9,24.6-13.9,28.9-13.9,29.6c0,0.4-2,4.8-4.4,9.9c-2.4,5-6.5,13.7-9.2,19.4l-4.8,10.2h-11.3H2005L2006.9,655.7z"/>
	<path class="st0" d="M1190.9,609.9c-17-1.9-33.7-10-41.8-20c-3.9-4.9-8.5-14-11.4-22.5c-1.9-5.6-2.1-9.2-2.6-57
		c-0.7-57.2-0.4-54.9-8.2-62c-2.1-1.9-3.9-3.7-3.9-4c0-0.3,8.3-0.5,18.5-0.5h18.5v49.3c0,68.1,0.9,75.2,11.6,86
		c8.3,8.4,24.4,13,37.8,10.7c18.7-3.1,29.4-13,33.5-31c0.7-2.8,1.1-25.4,1.1-59.7v-55.3h12h12v54.8c-0.1,48.3-0.3,55.8-1.9,64.2
		c-1.8,9.4-6.3,20.2-9.5,22.9c-0.9,0.8-1.6,1.9-1.6,2.6c0,1.2-9.4,9.8-14,12.8c-3.5,2.2-15.4,6.3-22,7.6
		C1210.5,610.4,1199.3,610.8,1190.9,609.9z"/>
	<path class="st0" d="M687.8,608.9c-8.5-1-22.4-5.6-23.2-7.6c-0.3-0.9-0.6-5.8-0.6-11c0-10.1,0.8-11.4,4.5-7.4c1,1.1,2.2,2,2.6,2
		c0.5,0,3.2,1.1,6.1,2.4c10.9,5,25.2,5.9,31.5,2c6.6-4.1,7.3-5.3,7.3-12c0-5.1-0.4-6.8-2.2-8.8c-2.4-2.6-16.9-10.9-20.9-11.9
		c-1.3-0.3-5-2.1-8.2-3.9s-6.9-3.9-8.3-4.6c-1.3-0.7-3.6-2.9-5.2-4.8c-1.5-2-3.5-4.5-4.4-5.6c-4.8-5.7-4.4-21.7,0.7-28.3
		c1.4-1.9,2.5-3.8,2.5-4.4c0-0.6,1.2-1.8,2.8-2.7c1.5-0.9,3.8-2.4,5.2-3.4c4.1-2.7,13.1-5.7,19.6-6.5c8.1-0.9,21.6,1.1,28.7,4.2
		l5.7,2.6v9.8c0,10.7-0.3,11.2-5,7.9c-12.3-8.8-33.1-9.3-39-1c-2.2,3-2.6,8-1,11.1c1.4,2.4,10.7,8.4,17.4,11
		c8.7,3.5,21.8,11.1,25.7,15c7.6,7.6,10.1,22.5,5.8,33.9c-2.1,5.8-10.5,15.5-14.4,16.6c-1.1,0.4-3.8,1.5-6.1,2.5
		c-4.1,1.8-15.1,4-18.9,3.8C695.4,609.7,691.5,609.3,687.8,608.9z"/>
	<path class="st0" d="M1618.5,608.8c-10.2-1.4-24-6.9-28-11.3c-0.5-0.6-2.6-2.3-4.6-3.8s-4.2-4.1-4.9-5.7c-0.7-1.7-1.6-3.1-2-3.1
		c-1.3,0-6.3-11.4-7.7-18c-3.5-15.6-0.2-40.9,6.2-48c0.7-0.8,2-2.7,2.7-4.1c1.4-2.6,13-13.9,14.3-13.9c0.4,0,1.9-0.8,3.3-1.9
		c4.7-3.2,14.3-6.2,22.1-6.7c14.7-1.1,29.9,4.4,39.3,14.4c8.1,8.5,13.7,25,13.8,40v7.2h-40.4h-40.3l0.9,5.2
		c1.3,6.9,6.7,17.5,11.5,22c2.1,2,6.5,4.9,9.8,6.5c5.6,2.5,6.9,2.7,18.5,2.7c11.9,0,13-0.2,22.5-3.7c5.4-2,10.1-3.5,10.2-3.3
		c0.2,0.2,1,3.6,1.8,7.7l1.4,7.4l-2.5,2.1c-3.5,2.9-19.9,7.4-30.8,8.5c-5,0.4-9.5,0.8-10.1,0.7
		C1625,609.7,1621.8,609.3,1618.5,608.8z M1650,536.7c0-0.7-1-4.6-2.2-8.7c-2-6.4-2.9-7.9-7.3-11.6c-6-5-9.9-6.5-17.5-6.5
		c-7.5,0-11.4,1.4-17.5,6.4c-5.1,4.1-9.8,12-11.1,18.5l-0.6,3.1h28.1C1643.7,537.9,1650,537.6,1650,536.7z"/>
	<path class="st0" d="M1797.8,608.9c-6.8-0.8-10-1.7-19.5-5.2l-5.3-1.9v-11c0-6,0.3-10.9,0.7-10.9c0.4,0,1.6,0.8,2.7,1.9
		c5.2,4.7,21.8,10.1,31,10.1c6.4,0,14.4-4.2,16.1-8.4c3.1-7.4,0.9-14.8-5.6-18.8c-5.1-3.1-12-6.6-16.5-8.3c-5.2-2-20-12.1-22.3-15.3
		c-6.6-9.4-6.9-24.9-0.5-34.3c2.6-3.8,9.3-8.6,15.8-11.3c11-4.6,29.5-3.9,41.2,1.4l6.4,2.9v10c0,5.6-0.2,10.1-0.5,10.1
		c-0.2,0-2.6-1.4-5.2-3c-16.1-10.2-37.2-8.7-40.8,2.8c-1.6,5.3,3.5,10.7,15.5,16.7c3,1.4,6.4,3.2,7.5,3.8s5.3,2.8,9.3,5
		c12.9,7,19,16.4,19.1,29.4c0.2,15-7,25.2-21.9,31c-4.9,2-16.8,4.5-19.5,4.2C1805,609.7,1801.5,609.3,1797.8,608.9z"/>
	<path class="st0" d="M1953.9,608.8c-8.6-1.2-17.8-6.1-21.9-11.7c-6.7-9.1-6.9-10.7-7-49.4V513l-9-0.3l-8.9-0.3l19-21.5
		c10.5-11.8,19.6-21.6,20.3-21.8c0.8-0.2,1,3.4,0.8,12.8l-0.4,13h17.6h17.6v9v9h-17.5H1947v30.8c0,16.9,0.4,32.4,0.9,34.5
		c3.3,13.9,16.9,17.5,33.8,8.9c2.3-1.2,4.7-2.2,5.3-2.2s1,3.4,1,9c0,9,0,9-2.7,9.6c-1.6,0.4-3.2,1-3.8,1.4c-1.6,1.3-11.6,3.8-17,4.3
		C1961.8,609.4,1957,609.3,1953.9,608.8z"/>
	<path class="st0" d="M787.5,608.2c-5-1.3-14.3-6.4-15.7-8.5c-0.9-1.3-2.6-3.3-3.7-4.6c-4.8-4.9-5.1-8-5.1-46.4v-35.9l-9,0.3
		c-5,0.2-9-0.1-9-0.5c0-0.9,28-33,33.6-38.5c1.9-1.8,3.4-3.7,3.4-4.3c0-0.5,0.7-0.9,1.5-0.9c1.3,0,1.5,2.1,1.5,13v13h17h17v9v9h-17
		h-17.1l0.3,34.4c0.3,33,0.4,34.6,2.4,37.2c4.1,5.6,7,6.9,14.7,6.9c6-0.1,8.4-0.6,14.1-3.3c3.7-1.8,7.2-3.2,7.7-3.2s0.9,4,0.9,8.9
		v8.9l-7.2,2.7c-6,2.3-9.2,2.9-17.8,3.1C794.2,608.6,788.6,608.5,787.5,608.2z"/>
	<path class="st0" d="M872,607.3c-3-0.9-5.9-2-6.4-2.5c-0.6-0.5-2-0.9-3.2-0.9c-2.5,0-14.1-8.4-18.7-13.6c-1.7-2.1-3.7-4.2-4.2-4.8
		c-2.1-2.2-8.3-16.3-9.6-21.6c-5.9-25.6,6.6-52.4,30.1-64.4c11.8-6,16.6-7.1,29.5-7c11.9,0.1,18.1,1.7,29.6,7.4
		c12.2,6.2,23.6,20.9,27.4,35.7c1.9,7.3,1.9,22.9,0,30.2c-1.7,6.5-7.1,17.4-11.2,22.7c-5,6.3-16.6,14.2-25,17.1
		c-6.5,2.2-9.9,2.7-20.3,2.9C881.1,608.7,875.9,608.4,872,607.3z M903.6,587.4c5.6-2.6,8.2-4.6,12.1-9.2c4.4-5.3,5.2-7.1,7.3-15.6
		c1.7-7.4,2.1-11,1.6-15.4c-2-17-9.2-27.9-22.6-34.2c-7.9-3.7-19.1-3.7-27,0c-13.7,6.4-20.6,16.8-22.6,34.3
		c-0.6,5.4,1.8,19.9,4,24.2c3.2,6.1,9.5,12.3,15.3,15.3C883.3,592.7,891.9,592.9,903.6,587.4z"/>
	<path class="st0" d="M502,604.2c0-2,1.9-6.8,7.1-17.9c1-2.2,1.9-4.5,1.9-5.2c0-0.6,1.6-4.6,3.6-8.9s4.9-11.2,6.4-15.3
		c1.5-4.1,4.1-10.4,5.9-13.9c1.7-3.6,3.1-7,3.1-7.7c0-0.6,1.6-4.7,3.6-9c2-4.4,4.7-11,6.1-14.9c1.4-3.8,4.1-10.1,5.9-13.9
		c1.9-3.8,3.4-7.5,3.4-8.1c0-0.6,2-5.6,4.4-11.1c5.7-12.8,7.5-21.7,5.6-27.5c-0.8-2.2-2-4.3-2.7-4.6c-4.1-1.6,0.5-2.3,15-2.3h16.4
		l3.6,7.9c2.1,4.4,3.7,8.4,3.7,9c0,0.7,1.5,4.2,3.4,7.9c1.8,3.7,4.1,8.8,4.9,11.3c0.9,2.5,3.3,8.4,5.5,13c2.2,4.6,4.3,9.5,4.7,10.9
		c0.4,1.4,2.7,6.7,5.1,11.8c2.4,5.2,4.4,9.9,4.4,10.5c0,0.7,2,5.4,4.5,10.5s4.5,9.8,4.5,10.3s2,5.3,4.4,10.7
		c2.4,5.3,4.7,10.8,5.1,12.1c0.4,1.3,2.7,6.5,5.1,11.5c2.4,5,4.4,9.6,4.4,10.2c0,0.6,1.4,3.8,3,7.2c3.6,7.5,3.7,8.6,0.8,7.8
		c-1.3-0.3-6.8-0.6-12.4-0.6h-10.1l-4.6-9.9c-2.6-5.5-4.7-10.4-4.7-11c0-0.5-1.8-4.9-4.1-9.8c-2.3-4.8-4.8-10.9-5.5-13.5l-1.5-4.8
		h-34.7h-34.8l-1.8,5.3c-1.9,5.4-6.7,17-9.2,22.1c-0.8,1.6-1.4,3.5-1.4,4.1c0,0.7-1.1,3.9-2.5,7.1c-4.9,11.2-3.5,10.2-15.1,10.6
		C502.2,606.4,502,606.4,502,604.2z M603,537.2c-1.9-3.5-8-17.2-8-18.2c0-0.6-2-5.4-4.5-10.7s-4.5-10-4.5-10.5c0-0.6-1.4-4-3.1-7.7
		c-1.8-3.7-4-8.5-5-10.6l-1.8-4l-2.4,5.5c-6,13.1-6.7,14.8-6.7,15.7c0,0.5-2,5.4-4.4,10.8c-2.3,5.5-4.6,11.1-5,12.7
		c-0.3,1.5-1.8,5.2-3.1,8.2c-1.4,2.9-2.9,6.5-3.5,7.9l-1,2.6h27C602.4,538.9,604,538.8,603,537.2z"/>
	<path class="st0" d="M1507.8,604.2c-0.6-1.6-3.3-7.4-5.9-13.1c-2.7-5.7-4.9-10.7-4.9-11.1c0-0.5-2-5-4.5-10s-4.5-9.5-4.5-10
		c0-0.4-2-4.9-4.5-10c-2.5-5-4.5-9.6-4.5-10.2c0-0.5-1.8-4.5-4-8.9c-2.2-4.4-5-10.5-6.1-13.5s-2.6-6.1-3.2-6.8
		c-0.7-0.6-2.4-3-3.9-5.2c-1.5-2.2-4.1-4.8-5.8-5.8c-1.6-1-3-2.5-3-3.3c0-1.2,2.6-1.4,15.3-1.4h15.2l2.3,5.8
		c2.8,6.6,9,21.1,15.7,36.6c2.6,6,5.1,12,5.5,13.5c0.5,1.4,2.4,6.1,4.3,10.4c3.3,7.4,4.7,8.2,4.7,2.7c0-1.7,1.3-5,6.6-16.8
		c1.3-2.9,2.4-5.8,2.4-6.5c0-0.7,2.3-6.4,5-12.6c2.8-6.3,5-12,5-12.5c0-0.6,1.9-5.5,4.2-10.8l4.3-9.8h10.8c11.3,0,12.3,0.5,9.2,4.6
		c-0.8,1-1.5,2.7-1.5,3.6s-2,5.9-4.5,11.1c-2.5,5.3-4.5,10-4.5,10.6c0,0.5-1.8,4.7-3.9,9.3c-2.2,4.6-5.1,11.5-6.5,15.3
		c-1.5,3.7-3,7.3-3.5,7.9c-0.5,0.6-2,4.2-3.5,7.9s-4.5,10.6-6.7,15.2c-2.1,4.6-3.9,8.8-3.9,9.3c0,0.6-1.7,4.7-3.7,9.1l-3.8,8.1h-4.3
		C1509.5,606.9,1508.8,606.5,1507.8,604.2z"/>
	<path class="st0" d="M969.8,558.2c-0.4-54.4-0.4-54.1-7.6-58.1c-2.3-1.3-4.2-3-4.2-3.8c0-1.2,2.9-1.4,16.5-1.4H991v7.8l0.1,7.7
		l3.7-4.3c3.9-4.5,5.3-5.5,14-9.8c20.7-10.2,46-1.1,53.2,19.1c2.5,7,2.5,7.1,2.8,48.8l0.3,41.7h-11.5H1042v-40
		c0-31.9-0.3-40.7-1.4-43.3c-1.8-4.2-8.2-10.1-12.5-11.6c-8.3-2.7-18.6-0.2-25.7,6.4c-1.5,1.4-3.1,2.5-3.5,2.5c-0.5,0-2,2-3.4,4.3
		l-2.5,4.4v38.6v38.7h-11.4h-11.5L969.8,558.2z"/>
	<path class="st0" d="M1297,558.3c0-45.7-0.1-47.7-2.1-52.3c-1.4-3.5-3-5.2-5.5-6.4c-1.8-0.9-3.4-2.3-3.4-3.2
		c0-1.3,2.4-1.5,16.5-1.5h16.5v7.6v7.7l4.1-4.7c2.2-2.5,4.7-4.6,5.4-4.6c0.7,0,1.5-0.4,1.7-0.9c0.6-1.7,10.5-5.9,16.6-7.1
		c16.3-3.3,33.1,3.9,40,16.9c5.7,10.7,6.2,15.3,6.2,57.9v38.2h-11.5H1370v-37.3c0-40.4-0.5-44.6-5.6-51.3
		c-5.1-6.9-17.3-9.5-25.9-5.5c-4.9,2.2-12.7,8.6-16,13.1l-2.5,3.4v38.8v38.8h-11.5H1297V558.3z"/>
	<path class="st0" d="M1422,558.2c0-44.4-0.2-48.1-1.9-51.9c-1.1-2.4-3.3-5-5.5-6.3c-2-1.3-3.6-2.9-3.6-3.7c0-1.1,2.9-1.4,16.5-1.4
		h16.5v55.5v55.5h-11h-11V558.2z"/>
	<path class="st0" d="M1695,559.2c0-54.3-0.2-55.4-6.8-59.1c-2.3-1.3-4.2-3-4.2-3.8c0-1.2,2.9-1.4,16.5-1.4h16.5v11.3v11.2l2.3-4.5
		c3-6.2,11.5-14.3,18.1-17.4c9-4.3,22.9-3.4,29,1.9l2.6,2.3l-1.6,6.3c-3.4,14.1-3.6,14.3-8.5,10.9c-1.5-1.2-5.3-2.6-8.3-3.2
		c-4.7-1-6.3-0.9-11.2,0.6c-6.4,2-13.7,8.5-16.6,14.7c-3.5,7.3-4.8,21-4.8,49.7v27.2h-11.5H1695V559.2z"/>
	<path class="st0" d="M1869.8,557.2c-0.3-54.4-0.2-52.9-7.3-57.1c-1.9-1.2-3.5-2.8-3.5-3.7c0-1.3,2.1-1.5,16.8-1.3l16.7,0.3
		l0.3,55.3l0.2,55.2h-11.4h-11.5L1869.8,557.2z"/>
	<path class="st0" d="M1426.3,471.9c-3.8-1.5-8.3-8.8-8.3-13.3c0-4.3,2.8-9.8,6.3-12.2c2.5-1.7,10.5-2,13.9-0.4
		c1.3,0.5,3.5,2.6,4.8,4.6C1450.7,461.9,1438.8,476.9,1426.3,471.9z"/>
	<path class="st0" d="M1873.5,471.4c-3.7-1.8-7.5-8.3-7.5-12.5c0-4.1,2.6-9.5,5.8-12c1.8-1.4,4-2,8-2c5,0,5.8,0.3,9.2,3.8
		c6.2,6.2,6.4,12.7,0.5,19.5C1885.3,472.9,1879.1,474.2,1873.5,471.4z"/>
</g>
</svg>
